<svg width="23" height="23" viewBox="0 0 23 23" fill="none" xmlns="http://www.w3.org/2000/svg">
<path d="M10.2073 20.7003H8.73525C4.971 20.7003 3.0894 20.7003 1.9197 19.5085C0.75 18.3168 0.75 16.3984 0.75 12.5628C0.75 8.72714 0.75 6.80879 1.9197 5.61704C3.0894 4.42529 4.971 4.42529 8.73525 4.42529H12.7284C16.4926 4.42529 18.3753 4.42529 19.545 5.61704C20.4448 6.53369 20.6517 7.88084 20.7 10.2003" stroke="#1B1A1B" stroke-width="1.5" stroke-linecap="round"/>
<path d="M15.45 4.425L15.345 4.0995C14.8252 2.4825 14.5659 1.674 13.9475 1.212C13.328 0.75 12.5068 0.75 10.8615 0.75H10.5853C8.9421 0.75 8.11995 0.75 7.5015 1.212C6.882 1.674 6.62265 2.4825 6.1029 4.0995L6 4.425" stroke="#1B1A1B" stroke-width="1.5"/>
<path d="M16.861 13.005C17.046 12.835 17.138 12.75 17.25 12.75C17.362 12.75 17.454 12.835 17.639 13.005L18.3519 13.662C18.4379 13.741 18.4809 13.781 18.5339 13.8C18.5879 13.82 18.6459 13.818 18.7639 13.813L19.7259 13.775C19.9739 13.765 20.0978 13.761 20.1828 13.832C20.2678 13.903 20.2848 14.026 20.3178 14.272L20.4498 15.258C20.4658 15.372 20.4728 15.428 20.5008 15.478C20.5288 15.526 20.5738 15.561 20.6638 15.632L21.4398 16.242C21.6318 16.394 21.7277 16.469 21.7467 16.577C21.7657 16.685 21.7007 16.789 21.5728 16.997L21.0468 17.844C20.9868 17.941 20.9568 17.99 20.9468 18.044C20.9368 18.098 20.9488 18.155 20.9728 18.267L21.1818 19.245C21.2318 19.485 21.2578 19.605 21.2028 19.701C21.1478 19.797 21.0308 19.835 20.7978 19.911L19.8719 20.212C19.7619 20.248 19.7059 20.266 19.6629 20.302C19.6199 20.339 19.5929 20.391 19.5399 20.494L19.0879 21.365C18.9729 21.588 18.9149 21.699 18.8099 21.737C18.7049 21.775 18.5899 21.727 18.3579 21.631L17.47 21.263C17.361 21.218 17.307 21.195 17.25 21.195C17.193 21.195 17.139 21.218 17.03 21.263L16.1421 21.631C15.9101 21.727 15.7951 21.775 15.6901 21.737C15.5851 21.699 15.5271 21.587 15.4121 21.365L14.9602 20.494C14.9062 20.391 14.8802 20.339 14.8372 20.303C14.7942 20.267 14.7382 20.248 14.6282 20.213L13.7022 19.911C13.4692 19.835 13.3523 19.797 13.2973 19.701C13.2423 19.605 13.2673 19.486 13.3183 19.245L13.5282 18.267C13.5512 18.155 13.5632 18.099 13.5532 18.045C13.5327 17.9726 13.4988 17.9048 13.4532 17.845L12.9283 16.997C12.7983 16.789 12.7343 16.685 12.7533 16.577C12.7723 16.469 12.8683 16.394 13.0603 16.243L13.8362 15.633C13.9262 15.561 13.9712 15.526 13.9992 15.477C14.0272 15.428 14.0342 15.372 14.0492 15.257L14.1822 14.272C14.2152 14.027 14.2322 13.903 14.3172 13.832C14.4022 13.761 14.5262 13.765 14.7742 13.775L15.7371 13.813C15.8541 13.818 15.9121 13.82 15.9661 13.8C16.0191 13.78 16.0621 13.741 16.1481 13.662L16.861 13.005Z" stroke="#1B1A1B" stroke-width="1.5"/>
</svg>
