<svg width="32" height="29" viewBox="0 0 32 29" fill="none" xmlns="http://www.w3.org/2000/svg">
<path d="M29.25 12.75C29.4818 12.6344 29.6919 12.4796 29.871 12.2925C30.75 11.3835 30.75 9.915 30.75 6.978C30.75 4.041 30.75 2.574 29.871 1.662C28.992 0.75 27.579 0.75 24.75 0.75H6.75C3.921 0.75 2.508 0.75 1.629 1.662C0.75 2.574 0.75 4.0425 0.75 6.978C0.75 9.9135 0.75 11.382 1.629 12.2925C1.809 12.4805 2.016 12.633 2.25 12.75" stroke="white" stroke-width="1.5" stroke-linecap="round" stroke-linejoin="round"/>
<path d="M26.1518 17.1675L25.1468 11.6955C24.7118 9.3315 24.4943 8.1495 23.6348 7.4505C22.7753 6.7515 21.5393 6.75 19.0688 6.75H12.4298C9.95926 6.75 8.72476 6.75 7.86376 7.4505C7.00426 8.1495 6.78676 9.3315 6.35176 11.6955L5.34676 17.1675C4.44676 22.074 3.99526 24.528 5.38276 26.1375C6.77026 27.75 9.33526 27.75 14.4623 27.75H17.0363C22.1633 27.75 24.7283 27.75 26.1158 26.139C27.5033 24.528 27.0533 22.074 26.1518 17.169M14.2493 6.75L11.9993 27.75M20.2493 20.25V21.75" stroke="white" stroke-width="1.5" stroke-linecap="round" stroke-linejoin="round"/>
</svg>
